<?xml version="1.0" encoding="utf-8"?>
<!-- Generator: Adobe Illustrator 21.1.0, SVG Export Plug-In . SVG Version: 6.00 Build 0)  -->
<svg version="1.1" id="Layer_1" xmlns="http://www.w3.org/2000/svg" xmlns:xlink="http://www.w3.org/1999/xlink" x="0px" y="0px"
	 viewBox="0 0 61 61" style="enable-background:new 0 0 61 61;" xml:space="preserve">
<style type="text/css">
	.st0{fill-rule:evenodd;clip-rule:evenodd;fill:#7B2E05;}
	.st1{fill:none;stroke:#7B2E05;stroke-width:1.5;stroke-miterlimit:10;}
	.st2{fill-rule:evenodd;clip-rule:evenodd;}
	.st3{fill:none;stroke:#FFB524;stroke-width:1.5;stroke-miterlimit:10;}
	.st4{fill:#AF5A04;}
	.st5{fill:#F3C01D;stroke:#AB6900;stroke-width:0.5;stroke-miterlimit:10;}
	.st6{fill:#FDDD22;}
	.st7{fill:none;stroke:#E39E02;stroke-width:0.25;stroke-miterlimit:10;}
	.st8{fill:none;}
	.st9{fill:#D68B18;}
	.st10{clip-path:url(#SVGID_2_);}
	.st11{fill-rule:evenodd;clip-rule:evenodd;fill:#F3C01D;}
	.st12{fill:#FFFFFF;}
</style>
<g>
	<g>
		<path class="st0" d="M11.8,50.3l41.1-10.8c1.3-0.3,2.6,0.4,2.9,1.5l1.2,4c0.3,1.1-0.4,2.3-1.7,2.6L14.2,58.4
			c-1.3,0.3-2.6-0.4-2.9-1.5l-1.2-4C9.7,51.8,10.5,50.6,11.8,50.3z"/>
		<path class="st1" d="M11.8,50.3l41.1-10.8c1.3-0.3,2.6,0.4,2.9,1.5l1.2,4c0.3,1.1-0.4,2.3-1.7,2.6L14.2,58.4
			c-1.3,0.3-2.6-0.4-2.9-1.5l-1.2-4C9.7,51.8,10.5,50.6,11.8,50.3z"/>
		<path class="st0" d="M11.8,48.3l41.1-10.8c1.3-0.3,2.6,0.4,2.9,1.5l1.2,4c0.3,1.1-0.4,2.3-1.7,2.6L14.2,56.4
			c-1.3,0.3-2.6-0.4-2.9-1.5l-1.2-4C9.7,49.8,10.5,48.6,11.8,48.3z"/>
		<path class="st1" d="M11.8,48.3l41.1-10.8c1.3-0.3,2.6,0.4,2.9,1.5l1.2,4c0.3,1.1-0.4,2.3-1.7,2.6L14.2,56.4
			c-1.3,0.3-2.6-0.4-2.9-1.5l-1.2-4C9.7,49.8,10.5,48.6,11.8,48.3z"/>
	</g>
	<g>
		<g>
			<path class="st0" d="M11.8,49.8l41.1-10.8c1.3-0.3,2.6,0.4,2.9,1.5l1.2,4c0.3,1.1-0.4,2.3-1.7,2.6L14.2,57.9
				c-1.3,0.3-2.6-0.4-2.9-1.5l-1.2-4C9.7,51.3,10.5,50.1,11.8,49.8z"/>
			<path class="st1" d="M11.8,49.8l41.1-10.8c1.3-0.3,2.6,0.4,2.9,1.5l1.2,4c0.3,1.1-0.4,2.3-1.7,2.6L14.2,57.9
				c-1.3,0.3-2.6-0.4-2.9-1.5l-1.2-4C9.7,51.3,10.5,50.1,11.8,49.8z"/>
		</g>
		<g>
			<path class="st2" d="M11.8,47.8l41.1-10.8c1.3-0.3,2.6,0.4,2.9,1.5l1.2,4c0.3,1.1-0.4,2.3-1.7,2.6L14.2,55.9
				c-1.3,0.3-2.6-0.4-2.9-1.5l-1.2-4C9.7,49.3,10.5,48.1,11.8,47.8z"/>
			<path class="st3" d="M11.8,47.8l41.1-10.8c1.3-0.3,2.6,0.4,2.9,1.5l1.2,4c0.3,1.1-0.4,2.3-1.7,2.6L14.2,55.9
				c-1.3,0.3-2.6-0.4-2.9-1.5l-1.2-4C9.7,49.3,10.5,48.1,11.8,47.8z"/>
		</g>
	</g>
</g>
<g id="moneda_1_">
	<path class="st4" d="M17.6,8C24.5,8,30,13.5,30,20.4s-5.6,12.4-12.4,12.4c-6.9,0-12.4-5.6-12.4-12.4C5.3,13.5,10.8,8,17.6,8z"/>
	<path class="st5" d="M16.7,7.1c6.9,0,12.4,5.6,12.4,12.4S23.5,32,16.7,32C10,31.9,4.4,26.3,4.4,19.4S10,7.1,16.7,7.1z"/>
	<g>
		<ellipse class="st6" cx="16.7" cy="19.4" rx="10.3" ry="10.3"/>
		<path class="st4" d="M7.4,20.3c0-5.7,4.6-10.3,10.3-10.3c2.6,0,4.9,1,6.8,2.6c-1.9-2.1-4.6-3.5-7.6-3.5c-5.7,0-10.3,4.6-10.3,10.3
			c0,3.1,1.4,5.8,3.5,7.7C8.3,25.3,7.4,22.9,7.4,20.3z"/>
		<ellipse class="st7" cx="16.7" cy="19.4" rx="10.3" ry="10.3"/>
	</g>
	<g>
		<path class="st8" d="M24,21.8c-0.4,0-0.7-0.2-1-0.4c-0.8-0.8-3.9-3.8-3.9-3.8s-0.2-0.2-0.6-0.2c-0.2,0-0.4,0.1-0.6,0.2
			c-0.9,0.5-1.7,0.9-2.2,1.1c-0.2,0.1-0.4,0.2-0.6,0.2c-0.3,0-0.6-0.2-0.9-0.4c-0.2-0.2-0.3-0.5-0.3-0.8c0-0.5,0.2-0.8,0.7-1.1
			c1.1-0.6,3.4-1.9,4.4-2.4c0.3-0.2,0.5-0.2,0.7-0.2c0.3,0,0.7,0.2,1.2,0.6c1,0.8,1.9,1.5,1.9,1.5s0.2,0.2,0.4,0.2
			c0.1,0,0.1,0,0.2,0c0.6-0.1,1.3-0.2,1.9-0.4c-1.5-2.7-4.6-4.8-8.1-4.8c-3.3,0-6.2,1.8-7.8,4.5l0.6,0.2l0,0
			c0.2,0.1,0.5,0.2,0.7,0.2c0.5,0,0.7-0.2,0.7-0.2c0.1-0.1,2.3-1.5,3.6-1.5s1.7,0.6,1.8,0.7c0,0,0,0.1,0,0.2c0,0.1,0,0.1-0.1,0.1
			c0,0-1.7,0.9-2.3,1.4l0,0c-0.5,0.3-0.8,0.8-0.8,1.4c0,0.9,0.7,1.7,1.7,1.7c0.2,0,0.5-0.1,1-0.3l0,0c0.4-0.2,1.2-0.6,1.7-0.9
			c0.6-0.2,0.8-0.2,1.1,0.2c0.2,0.2,3.6,3.7,3.6,3.7c0.4,0.4,0.3,1-0.1,1.4c-0.2,0.2-0.5,0.3-0.7,0.3c-0.1,0-0.2-0.1-0.3-0.1
			c-0.1-0.1-0.2,0-0.2,0.1c0.2,0.3,0.1,0.7-0.2,1c-0.2,0.2-0.4,0.2-0.6,0.2c-0.2,0-0.3-0.1-0.5-0.2c-0.1-0.1-0.2,0-0.2,0.1
			c0.1,0.3,0,0.6-0.2,0.8c-0.2,0.2-0.4,0.2-0.6,0.2c-0.2,0-0.3-0.1-0.5-0.2c-0.1-0.1-0.2,0-0.2,0.2c0,0.2-0.1,0.5-0.2,0.6
			c-0.2,0.2-0.4,0.2-0.6,0.2c-0.2,0-0.5-0.1-0.6-0.2c-0.2-0.2-0.3-0.4-0.4-0.5l0,0c0,0-0.1-0.1,0-0.2c0.1-0.6-0.1-1.1-0.4-1.5
			c-0.2-0.2-0.4-0.3-0.7-0.4c-0.1,0-0.1-0.1-0.1-0.1c-0.1-0.3-0.2-0.6-0.4-0.8c-0.2-0.2-0.4-0.3-0.6-0.4c-0.1,0-0.1-0.1-0.1-0.1
			c-0.1-0.2-0.2-0.5-0.4-0.7c-0.2-0.2-0.4-0.3-0.6-0.4c-0.1,0-0.1-0.1-0.1-0.1c-0.1-0.2-0.2-0.5-0.4-0.7c-0.3-0.3-0.7-0.5-1.2-0.5
			s-1,0.2-1.3,0.5c-0.2,0.2-0.4,0.5-0.5,0.7l-0.1,0.1c0,0-0.1,0-0.2,0c-0.2-0.1-0.6-0.2-0.7-0.2c0.8,4.2,4.4,7.4,8.9,7.4
			c4.5,0,8.2-3.3,9-7.7C25.6,21.5,24.2,21.8,24,21.8z M15.4,26.9c-0.3,0.3-0.8,0.5-1.2,0.5c-0.3,0-0.6-0.1-0.8-0.3
			c-0.2-0.3-0.2-0.6-0.2-0.8c0.1-0.2-0.1-0.2-0.2-0.2c-0.1,0-0.2,0-0.2,0c-0.2,0-0.5-0.1-0.6-0.3c-0.2-0.3-0.2-0.6-0.2-0.8
			c0.1-0.2-0.1-0.2-0.2-0.2s-0.2,0-0.2,0c-0.2,0-0.5-0.1-0.6-0.3c-0.2-0.3-0.2-0.6-0.2-0.8c0-0.2-0.1-0.2-0.2-0.2
			c-0.1,0-0.2,0-0.2,0c-0.2,0-0.5-0.1-0.6-0.3c-0.5-0.5-0.2-1.4,0.3-1.9c0.2-0.2,0.6-0.4,0.9-0.4s0.6,0.1,0.8,0.3
			c0.2,0.2,0.3,0.4,0.3,0.7c0,0.2,0.1,0.2,0.2,0.2c0.3,0,0.6,0.2,0.7,0.3c0.2,0.2,0.3,0.5,0.3,0.7c0,0.1,0,0.2,0.2,0.2
			c0.3,0,0.6,0.2,0.7,0.3c0.2,0.2,0.3,0.5,0.3,0.8c0,0.1,0,0.2,0.2,0.2c0.3,0.1,0.6,0.1,0.8,0.3c0.2,0.2,0.3,0.5,0.3,0.8
			C15.8,26.3,15.6,26.6,15.4,26.9z"/>
		<path class="st9" d="M14.6,24.9c-0.1,0-0.1-0.1-0.2-0.2c0-0.3-0.1-0.6-0.3-0.8c-0.2-0.2-0.5-0.3-0.7-0.3c-0.2,0-0.1-0.1-0.2-0.2
			c0-0.2-0.1-0.6-0.3-0.7c-0.2-0.2-0.5-0.3-0.7-0.3c-0.1,0-0.2,0-0.2-0.2c0-0.2-0.1-0.6-0.3-0.7c-0.2-0.2-0.5-0.3-0.8-0.3
			s-0.6,0.2-0.9,0.4c-0.5,0.5-0.8,1.4-0.3,1.9c0.2,0.2,0.4,0.3,0.6,0.3c0.1,0,0.2,0,0.2,0s0.2,0,0.2,0.2c-0.1,0.2-0.1,0.5,0.2,0.8
			c0.2,0.2,0.4,0.3,0.6,0.3c0.1,0,0.2,0,0.2,0s0.2,0,0.2,0.2c-0.1,0.2-0.1,0.5,0.2,0.8c0.2,0.2,0.4,0.3,0.6,0.3c0.1,0,0.2,0,0.2,0
			s0.2,0,0.2,0.2c-0.1,0.2-0.1,0.6,0.2,0.8c0.2,0.2,0.4,0.3,0.8,0.3s0.9-0.2,1.2-0.5c0.2-0.2,0.4-0.6,0.4-0.9c0-0.3-0.1-0.6-0.3-0.8
			C15.3,24.9,15,24.9,14.6,24.9z"/>
		<path class="st9" d="M9.1,21.9L9.1,21.9c0.2-0.4,0.3-0.6,0.6-0.8c0.3-0.3,0.8-0.5,1.3-0.5c0.5,0,0.9,0.2,1.2,0.5
			c0.2,0.2,0.3,0.4,0.4,0.7c0,0.1,0.1,0.1,0.1,0.1c0.2,0.1,0.5,0.2,0.6,0.4c0.2,0.2,0.3,0.4,0.4,0.7c0,0.1,0.1,0.1,0.1,0.1
			c0.2,0.1,0.5,0.2,0.6,0.4c0.2,0.2,0.3,0.5,0.4,0.8c0,0.1,0.1,0.1,0.1,0.1c0.2,0.1,0.5,0.2,0.7,0.4c0.4,0.4,0.6,0.9,0.4,1.5
			c0,0.1,0,0.1,0,0.2l0,0c0.1,0.1,0.2,0.3,0.4,0.5c0.2,0.2,0.4,0.2,0.6,0.2c0.2,0,0.5-0.1,0.6-0.2c0.2-0.2,0.2-0.4,0.2-0.6
			c0-0.2,0.2-0.2,0.2-0.2c0.2,0.1,0.3,0.2,0.5,0.2c0.2,0,0.5-0.1,0.6-0.2c0.2-0.2,0.3-0.6,0.2-0.8c0-0.1,0-0.2,0.2-0.1
			s0.3,0.2,0.5,0.2c0.2,0,0.5-0.1,0.6-0.2c0.2-0.2,0.3-0.6,0.2-1c0-0.1,0-0.2,0.2-0.1c0.1,0.1,0.2,0.1,0.3,0.1
			c0.2,0,0.6-0.2,0.7-0.3c0.4-0.4,0.4-1,0.1-1.4c0,0-3.5-3.6-3.6-3.7c-0.3-0.3-0.6-0.3-1.1-0.2c-0.6,0.2-1.4,0.6-1.7,0.9l0,0
			c-0.5,0.2-0.8,0.3-1,0.3c-0.9,0-1.7-0.7-1.7-1.7c0-0.6,0.3-1.1,0.8-1.4l0,0c0.7-0.5,2.3-1.4,2.3-1.4l0.1-0.1c0-0.1,0-0.1,0-0.2
			c0,0-0.6-0.7-1.8-0.7c-1.1,0-3.4,1.5-3.6,1.5c0,0-0.3,0.2-0.7,0.2c-0.2,0-0.5-0.1-0.7-0.2l0,0l-0.6-0.2c-0.8,1.4-1.2,2.9-1.2,4.6
			c0,0.6,0.1,1.1,0.2,1.6C8.2,21.9,8.5,22,8.7,22C9.1,21.9,9.1,21.9,9.1,21.9z"/>
		<path class="st9" d="M23.3,16.2c-0.2,0-0.4-0.2-0.4-0.2S22,15.3,21,14.5c-0.5-0.4-0.8-0.6-1.2-0.6c-0.2,0-0.5,0.1-0.7,0.2
			c-0.9,0.5-3.2,1.8-4.4,2.4c-0.5,0.2-0.7,0.6-0.7,1.1c0,0.2,0.2,0.6,0.3,0.8c0.2,0.2,0.6,0.4,0.9,0.4c0.2,0,0.4-0.1,0.6-0.2
			c0.4-0.2,1.3-0.6,2.2-1.1c0.2-0.1,0.4-0.2,0.6-0.2c0.4,0,0.6,0.2,0.6,0.2c0,0,3.1,3,3.9,3.8c0.2,0.2,0.6,0.4,1,0.4
			c0.2,0,1.6-0.3,2.2-0.4c0.1-0.5,0.2-1,0.2-1.5c0-1.5-0.4-2.9-1.1-4.2c-0.6,0.2-1.3,0.2-1.9,0.4C23.4,16.2,23.3,16.2,23.3,16.2z"/>
	</g>
</g>
<g>
	<defs>
		<polygon id="SVGID_1_" points="5,56 57,42 45,9 -4,23 		"/>
	</defs>
	<clipPath id="SVGID_2_">
		<use xlink:href="#SVGID_1_"  style="overflow:visible;"/>
	</clipPath>
	<g id="moneda" class="st10">
		<path class="st4" d="M31,16.9c10.5,0,19.1,8.5,19.1,19.1S41.5,55.2,31,55.2S12,46.6,12,36C12,25.5,20.5,16.9,31,16.9z"/>
		<path class="st5" d="M29.6,15.5c10.5,0,19.1,8.5,19.1,19.1s-8.5,19.1-19.1,19.1s-19.1-8.5-19.1-19.1C10.6,24,19.1,15.5,29.6,15.5z
			"/>
		<g>
			<ellipse class="st6" cx="29.6" cy="34.6" rx="15.7" ry="15.8"/>
			<path class="st4" d="M15.1,35.9c0-8.8,7.1-15.8,15.7-15.8c4,0,7.6,1.5,10.4,4c-2.9-3.2-7.1-5.3-11.7-5.3
				c-8.7,0-15.7,7.1-15.7,15.8c0,4.7,2,9,5.3,11.9C16.7,43.7,15.1,40,15.1,35.9z"/>
			<ellipse class="st7" cx="29.6" cy="34.6" rx="15.7" ry="15.8"/>
		</g>
		<g>
			<path class="st8" d="M40.8,38.2c-0.6,0-1.1-0.2-1.6-0.6c-1.3-1.3-5.9-5.9-5.9-5.9s-0.4-0.3-0.9-0.3c-0.3,0-0.6,0.1-0.9,0.3
				c-1.3,0.7-2.6,1.4-3.3,1.8c-0.3,0.1-0.6,0.3-1,0.3c-0.5,0-1-0.2-1.3-0.6c-0.4-0.4-0.6-0.8-0.6-1.2c0-0.7,0.4-1.3,1.2-1.7
				c1.7-1.1,5.2-3,6.6-3.7c0.4-0.2,0.8-0.4,1.1-0.4c0.6,0,1.1,0.3,1.8,0.9c1.5,1.3,2.8,2.4,2.8,2.4s0.3,0.2,0.6,0.2
				c0.1,0,0.2,0,0.3,0c0.8-0.2,1.9-0.4,2.8-0.6c-2.3-4.5-7-7.6-12.4-7.6c-5.2,0-9.6,2.8-12,6.9l0.9,0.3l0,0c0.4,0.1,0.8,0.2,1.1,0.2
				c0.7,0,1.1-0.3,1.1-0.3c0.1-0.1,3.7-2.4,5.4-2.4c1.8,0,2.6,1.1,2.7,1.1c0.1,0.1,0.1,0.1,0.1,0.2s-0.1,0.1-0.1,0.1
				c0,0-2.5,1.3-3.7,2.1l0,0c-0.8,0.5-1.2,1.3-1.2,2.2c0,1.4,1.1,2.5,2.5,2.5c0.3,0,0.8-0.1,1.6-0.5l0,0c0.6-0.3,1.8-1,2.7-1.3
				c0.8-0.4,1.3-0.4,1.8,0.2c0.2,0.2,5.6,5.7,5.6,5.7c0.6,0.6,0.4,1.6-0.1,2.1c-0.3,0.3-0.8,0.5-1.1,0.5c-0.2,0-0.4-0.1-0.5-0.1
				c-0.2-0.1-0.3,0.1-0.2,0.1c0.3,0.5,0.2,1.1-0.2,1.6c-0.3,0.3-0.6,0.4-1,0.4c-0.3,0-0.6-0.1-0.8-0.2c-0.1-0.1-0.3,0.1-0.2,0.2
				c0.1,0.5,0,0.9-0.4,1.3c-0.3,0.3-0.6,0.4-1.1,0.4c-0.3,0-0.5-0.1-0.7-0.2c-0.1-0.1-0.3,0-0.3,0.2c0,0.4-0.1,0.8-0.4,1.1
				c-0.3,0.3-0.6,0.4-1.1,0.4c-0.4,0-0.8-0.1-1.1-0.4c-0.2-0.2-0.6-0.6-0.6-0.7l0,0C29,45.3,29,45.2,29,45.2
				c0.1-0.8-0.1-1.7-0.7-2.3c-0.3-0.3-0.7-0.6-1.1-0.6c-0.1,0-0.1-0.1-0.1-0.1c-0.1-0.4-0.4-0.8-0.6-1.2c-0.3-0.3-0.6-0.5-1.1-0.6
				c-0.1,0-0.1-0.1-0.1-0.1c-0.1-0.4-0.3-0.8-0.6-1.1c-0.3-0.3-0.6-0.5-1.1-0.6c-0.1,0-0.1-0.1-0.1-0.1c-0.1-0.4-0.3-0.8-0.6-1.1
				c-0.5-0.5-1.1-0.8-1.9-0.8c-0.8,0-1.5,0.3-2,0.8c-0.4,0.3-0.6,0.7-0.7,1.1c0,0.1-0.1,0.1-0.1,0.1c-0.1,0-0.1,0-0.2,0
				c-0.4-0.1-0.8-0.3-1.1-0.4c1.1,6.4,6.8,11.3,13.6,11.3c6.9,0,12.7-5.1,13.8-11.8C43.3,37.7,41.1,38.2,40.8,38.2z M27.5,46.1
				c-0.5,0.4-1.2,0.7-1.9,0.7c-0.5,0-0.9-0.1-1.2-0.5C24,45.9,24,45.4,24.1,45c0.1-0.3-0.1-0.3-0.2-0.3c-0.1,0-0.2,0-0.4,0
				c-0.4,0-0.8-0.1-1.1-0.5c-0.4-0.4-0.4-0.8-0.3-1.2c0.1-0.3-0.1-0.2-0.3-0.2c-0.1,0-0.2,0-0.3,0c-0.4,0-0.7-0.1-1-0.5
				c-0.4-0.5-0.4-0.9-0.3-1.3c0.1-0.2-0.1-0.2-0.2-0.2s-0.2,0.1-0.4,0.1c-0.4,0-0.7-0.1-1-0.5c-0.7-0.8-0.3-2.1,0.6-2.9
				c0.4-0.4,0.9-0.6,1.4-0.6s0.9,0.2,1.3,0.5c0.3,0.3,0.4,0.7,0.4,1.1c0,0.2,0.1,0.3,0.2,0.3c0.4,0,0.8,0.2,1.1,0.5
				c0.3,0.3,0.4,0.7,0.4,1.1c0,0.1,0,0.3,0.2,0.3c0.4,0,0.8,0.2,1.2,0.5c0.4,0.4,0.4,0.8,0.5,1.3c0,0.1,0.1,0.2,0.2,0.2
				c0.5,0.1,0.9,0.2,1.3,0.5c0.4,0.4,0.5,0.8,0.5,1.3C28.1,45.2,27.9,45.6,27.5,46.1z"/>
			<path class="st9" d="M26.4,42.9c-0.1,0-0.2-0.1-0.2-0.2c0-0.5-0.1-0.9-0.5-1.3c-0.3-0.3-0.7-0.5-1.2-0.5c-0.2,0-0.2-0.1-0.2-0.3
				c0-0.4-0.1-0.8-0.4-1.1S23.2,39,22.8,39c-0.1,0-0.2-0.1-0.2-0.3c0-0.4-0.1-0.8-0.4-1.1c-0.4-0.4-0.8-0.5-1.3-0.5
				c-0.5,0-1.1,0.2-1.4,0.6c-0.8,0.8-1.2,2.1-0.6,2.9c0.3,0.4,0.6,0.5,1,0.5c0.1,0,0.2,0,0.4-0.1c0.1,0,0.3,0,0.2,0.2
				c-0.1,0.4-0.1,0.8,0.3,1.3c0.3,0.4,0.6,0.5,1,0.5c0.1,0,0.2,0,0.3,0c0.1,0,0.4-0.1,0.3,0.2c-0.1,0.4-0.1,0.8,0.3,1.2
				c0.3,0.3,0.6,0.5,1.1,0.5c0.1,0,0.2,0,0.4,0c0.1,0,0.4,0,0.2,0.3C24,45.6,24,46,24.5,46.4c0.3,0.3,0.7,0.5,1.2,0.5
				c0.7,0,1.4-0.3,1.9-0.8c0.4-0.4,0.6-0.9,0.6-1.4s-0.1-0.9-0.5-1.3C27.4,43,26.9,43,26.4,42.9z"/>
			<path class="st9" d="M18,38.3c0.1,0,0.1-0.1,0.1-0.1c0.1-0.4,0.4-0.8,0.7-1.1c0.5-0.5,1.3-0.8,2-0.8c0.7,0,1.4,0.3,1.9,0.8
				c0.3,0.3,0.5,0.7,0.6,1.1c0,0.1,0.1,0.1,0.1,0.1c0.4,0.1,0.8,0.4,1.1,0.6s0.5,0.6,0.6,1.1c0,0.1,0.1,0.1,0.1,0.1
				c0.4,0.1,0.8,0.4,1.1,0.6c0.4,0.4,0.6,0.7,0.6,1.2c0,0.1,0.1,0.1,0.1,0.1c0.4,0.1,0.8,0.4,1.1,0.6c0.6,0.6,0.8,1.4,0.7,2.3
				c0,0.1,0,0.1,0.1,0.2l0,0c0.1,0.1,0.4,0.5,0.6,0.7c0.3,0.3,0.6,0.4,1.1,0.4s0.8-0.1,1.1-0.4c0.3-0.3,0.4-0.6,0.4-1.1
				c0-0.2,0.2-0.3,0.3-0.2c0.2,0.1,0.5,0.2,0.7,0.2c0.4,0,0.8-0.1,1.1-0.4c0.4-0.4,0.5-0.8,0.4-1.3c0-0.1,0.1-0.3,0.2-0.2
				c0.2,0.1,0.5,0.2,0.8,0.2c0.4,0,0.8-0.1,1-0.4c0.4-0.4,0.5-1,0.2-1.6c-0.1-0.1,0-0.3,0.2-0.1c0.1,0.1,0.4,0.1,0.5,0.1
				c0.4,0,0.8-0.2,1.1-0.5c0.6-0.6,0.7-1.6,0.1-2.1c0,0-5.4-5.5-5.6-5.7c-0.5-0.5-1-0.6-1.8-0.2c-0.8,0.4-2.1,1.1-2.7,1.3l0,0
				c-0.7,0.4-1.3,0.5-1.6,0.5c-1.4,0-2.5-1.1-2.5-2.5c0-0.9,0.4-1.7,1.2-2.2l0,0c1.1-0.8,3.6-2.1,3.7-2.1c0.1,0,0.1-0.1,0.1-0.1
				s0-0.1-0.1-0.2c0-0.1-0.8-1.1-2.7-1.1c-1.8,0-5.3,2.3-5.4,2.4c0,0-0.4,0.3-1.1,0.3c-0.4,0-0.8-0.1-1.1-0.2l0,0l-0.9-0.3
				c-1.2,2-1.9,4.4-1.9,7.1c0,0.8,0.1,1.7,0.2,2.5c0.3,0.1,0.7,0.2,1.1,0.4C17.8,38.4,17.9,38.4,18,38.3z"/>
			<path class="st9" d="M39.6,29.6c-0.4,0-0.6-0.2-0.6-0.2s-1.3-1.2-2.8-2.4c-0.7-0.6-1.3-0.9-1.8-0.9c-0.4,0-0.7,0.1-1.1,0.4
				c-1.4,0.8-4.9,2.8-6.6,3.7c-0.8,0.4-1.2,1-1.2,1.7c0,0.4,0.2,0.8,0.6,1.2s0.8,0.6,1.3,0.6c0.4,0,0.6-0.1,1-0.3
				c0.7-0.4,2-1.1,3.3-1.8c0.3-0.1,0.6-0.3,0.9-0.3c0.6,0,0.9,0.3,0.9,0.3c0.1,0.1,4.7,4.7,5.9,5.9c0.4,0.4,0.9,0.6,1.6,0.6
				c0.3,0,2.5-0.5,3.3-0.6c0.1-0.7,0.2-1.5,0.2-2.2c0-2.3-0.6-4.5-1.6-6.4c-0.9,0.2-2,0.4-2.8,0.6C39.8,29.6,39.7,29.6,39.6,29.6z"
				/>
		</g>
	</g>
</g>
<path class="st0" d="M27.6,2.2l1.6,5.5h-1.6l3.1,4.4l3.1-4.4h-1.6l1.6-5.5H27.6z"/>
<path class="st0" d="M36,8l1.3,4.4H36l2.5,3.6l2.5-3.6h-1.3L41,8H36z"/>
<path class="st11" d="M44.4,5l2.8,9.5h-2.7l5.3,7.5l5.3-7.5h-2.7L55,5H44.4z"/>
<g>
	<g>
		<path class="st12" d="M45.4,31.7c0-1.5,0.6-3.8,1.2-4.3c0.5-0.5,2.8-1.2,4.3-1.2c-1.5,0-3.7-0.6-4.3-1.2c-0.6-0.6-1.2-2.8-1.2-4.3
			c0,1.6-0.6,3.7-1.3,4.4c-0.7,0.7-2.8,1.1-4.2,1.1c1.5,0,3.7,0.6,4.3,1.2C44.8,27.9,45.4,30.2,45.4,31.7z"/>
	</g>
	<g>
		<path class="st12" d="M49,32.5c0-0.6,0.2-1.3,0.4-1.6c0.1-0.1,1-0.4,1.6-0.4c-0.6,0-1.3-0.2-1.6-0.4c-0.2-0.2-0.4-1-0.4-1.6
			c0,0.6-0.2,1.3-0.4,1.6c-0.2,0.2-1,0.4-1.5,0.4c0.6,0,1.3,0.2,1.6,0.4C48.8,31.2,49,32,49,32.5z"/>
	</g>
	<g>
		<path class="st12" d="M41.9,36.7c0-0.8,0.4-1.9,0.6-2.1c0.2-0.2,1.4-0.6,2.1-0.6c-0.8,0-1.8-0.3-2.1-0.6s-0.6-1.4-0.6-2.1
			c0,0.8-0.3,1.8-0.6,2.2c-0.4,0.4-1.3,0.6-2.1,0.6c0.8,0,1.8,0.3,2.1,0.6C41.6,34.8,41.9,35.9,41.9,36.7z"/>
	</g>
</g>
</svg>
